{"buffers":[{"uri":"barrel_low.bin","byteLength":19780},{"byteLength":43184,"extensions":{"EXT_meshopt_compression":{"fallback":true}}}],"asset":{"version":"2.0","generator":"gltfpack 0.20","extras":{"author":"Allvis (https://sketchfab.com/allvis)","license":"CC-BY-4.0 (http://creativecommons.org/licenses/by/4.0/)","source":"https://sketchfab.com/3d-models/barril-2854e67a863e4e1982e68e98fed705a7","title":"Barril"}},"extensionsUsed":["KHR_mesh_quantization","EXT_meshopt_compression","KHR_texture_transform"],"extensionsRequired":["KHR_mesh_quantization","EXT_meshopt_compression"],"bufferViews":[{"buffer":1,"byteOffset":0,"byteLength":9140,"byteStride":4,"target":34962,"extensions":{"EXT_meshopt_compression":{"buffer":0,"byteOffset":0,"byteLength":2209,"byteStride":4,"mode":"ATTRIBUTES","filter":"OCTAHEDRAL","count":2285}}},{"buffer":1,"byteOffset":9140,"byteLength":18280,"byteStride":8,"target":34962,"extensions":{"EXT_meshopt_compression":{"buffer":0,"byteOffset":2212,"byteLength":10260,"byteStride":8,"mode":"ATTRIBUTES","count":2285}}},{"buffer":1,"byteOffset":27420,"byteLength":9140,"byteStride":4,"target":34962,"extensions":{"EXT_meshopt_compression":{"buffer":0,"byteOffset":12472,"byteLength":6162,"byteStride":4,"mode":"ATTRIBUTES","count":2285}}},{"buffer":1,"byteOffset":36560,"byteLength":6624,"target":34963,"extensions":{"EXT_meshopt_compression":{"buffer":0,"byteOffset":18636,"byteLength":1142,"byteStride":2,"mode":"TRIANGLES","count":3312}}}],"accessors":[{"bufferView":0,"byteOffset":0,"componentType":5120,"count":2285,"type":"VEC3","normalized":true},{"bufferView":1,"byteOffset":0,"componentType":5123,"count":2285,"type":"VEC3","min":[0,0,0],"max":[16293,14469,16383]},{"bufferView":2,"byteOffset":0,"componentType":5123,"count":2285,"type":"VEC2","normalized":true},{"bufferView":3,"byteOffset":0,"componentType":5123,"count":3312,"type":"SCALAR"}],"samplers":[{"magFilter":9729,"minFilter":9987}],"images":[{"uri":"barrel_texture.png"}],"textures":[{"sampler":0,"source":0}],"materials":[{"name":"Inimigos","pbrMetallicRoughness":{"baseColorTexture":{"index":0,"extensions":{"KHR_texture_transform":{"offset":[0.257882148,0.562548995],"scale":[11.7546244,6.92429781]}}},"metallicFactor":0,"roughnessFactor":0.5},"doubleSided":true}],"meshes":[{"primitives":[{"attributes":{"NORMAL":0,"POSITION":1,"TEXCOORD_0":2},"indices":3,"material":0}]}],"nodes":[{"mesh":0,"translation":[-1.13468826,0.0224413872,-13.5984907],"scale":[0.00013892485,0.00013892485,0.00013892485]}],"scenes":[{"name":"Sketchfab_Scene","nodes":[0]}],"scene":0}